# xmcd
#
# Track frame offsets:
#	150
#	21825
#	45255
#	72080
#	94200
#	117220
#	138870
#	162097
#	188687
#	210837
#
# Disc length: 3119 seconds
#
# Revision: 0
# Processed by: cddbd v1.5.1PL0 Copyright (c) Steve Scherf et al.
# Submitted via: audiograbber 1.82.02
#
DISCID=750c2d0a
DTITLE=Celine Dion - Karaoke Celine Dion 852
DYEAR=1900
DGENRE=Karaoke
TTITLE0=Celine Dion - My heart will go on
TTITLE1=Celine Dion - Dreaming of you
TTITLE2=Celine Dion - The power of love
TTITLE3=Celine Dion - Because you loved me
TTITLE4=Celine Dion - Let's talk about love
TTITLE5=Celine Dion W - Vocals - My heart will go on W - Vocals
TTITLE6=Celine Dion W - Vocals - Dreaming of you W - Vocals
TTITLE7=Celine Dion W - Vocals - The power of love W - Vocals
TTITLE8=Celine Dion W - Vocals - Because you loved me W - Vocals
TTITLE9=Celine Dion W - Vocals - Let's talk about love W - Vocals
EXTD=
EXTT0=
EXTT1=
EXTT2=
EXTT3=
EXTT4=
EXTT5=
EXTT6=
EXTT7=
EXTT8=
EXTT9=
PLAYORDER=
